<mxfile host="app.diagrams.net" modified="2023-12-04T07:23:10.006Z" agent="Mozilla/5.0 (Windows NT 10.0; Win64; x64) AppleWebKit/537.36 (KHTML, like Gecko) Chrome/119.0.0.0 Safari/537.36" etag="t9dUeM7FpEzMJYxffSfA" version="22.1.5" type="device">
  <diagram id="ZhcR84m63UL_yrtATr14" name="Page-1">
    <mxGraphModel dx="2474" dy="446" grid="1" gridSize="10" guides="1" tooltips="1" connect="1" arrows="1" fold="1" page="1" pageScale="1" pageWidth="1600" pageHeight="900" background="#ffffff" math="0" shadow="0">
      <root>
        <mxCell id="0" />
        <mxCell id="1" parent="0" />
        <mxCell id="3jbmsUtakSOqrdovEyNH-1" value="Szemely" style="rounded=0;whiteSpace=wrap;html=1;" parent="1" vertex="1">
          <mxGeometry x="180" y="240" width="120" height="40" as="geometry" />
        </mxCell>
        <mxCell id="3jbmsUtakSOqrdovEyNH-2" value="Van" style="rhombus;whiteSpace=wrap;html=1;" parent="1" vertex="1">
          <mxGeometry x="-40" y="320" width="80" height="80" as="geometry" />
        </mxCell>
        <mxCell id="3jbmsUtakSOqrdovEyNH-5" value="Teljes nev" style="ellipse;shape=doubleEllipse;margin=3;whiteSpace=wrap;html=1;align=center;" parent="1" vertex="1">
          <mxGeometry x="159.5" y="80" width="100" height="40" as="geometry" />
        </mxCell>
        <mxCell id="3jbmsUtakSOqrdovEyNH-6" value="&lt;div&gt;Vezetek nev&lt;/div&gt;" style="ellipse;whiteSpace=wrap;html=1;align=center;" parent="1" vertex="1">
          <mxGeometry x="84.5" width="100" height="40" as="geometry" />
        </mxCell>
        <mxCell id="3jbmsUtakSOqrdovEyNH-7" value="&lt;div&gt;Keresztnev nev&lt;/div&gt;" style="ellipse;whiteSpace=wrap;html=1;align=center;" parent="1" vertex="1">
          <mxGeometry x="230" width="100" height="40" as="geometry" />
        </mxCell>
        <mxCell id="3jbmsUtakSOqrdovEyNH-9" value="" style="endArrow=none;html=1;rounded=0;exitX=1;exitY=1;exitDx=0;exitDy=0;entryX=0;entryY=0;entryDx=0;entryDy=0;" parent="1" source="3jbmsUtakSOqrdovEyNH-6" target="3jbmsUtakSOqrdovEyNH-5" edge="1">
          <mxGeometry relative="1" as="geometry">
            <mxPoint x="310" y="170" as="sourcePoint" />
            <mxPoint x="470" y="170" as="targetPoint" />
          </mxGeometry>
        </mxCell>
        <mxCell id="3jbmsUtakSOqrdovEyNH-10" value="" style="endArrow=none;html=1;rounded=0;exitX=1;exitY=0;exitDx=0;exitDy=0;entryX=0;entryY=1;entryDx=0;entryDy=0;" parent="1" source="3jbmsUtakSOqrdovEyNH-5" target="3jbmsUtakSOqrdovEyNH-7" edge="1">
          <mxGeometry relative="1" as="geometry">
            <mxPoint x="560" y="180" as="sourcePoint" />
            <mxPoint x="720" y="180" as="targetPoint" />
          </mxGeometry>
        </mxCell>
        <mxCell id="3jbmsUtakSOqrdovEyNH-11" value="" style="endArrow=none;html=1;rounded=0;exitX=0.5;exitY=1;exitDx=0;exitDy=0;entryX=0.5;entryY=0;entryDx=0;entryDy=0;" parent="1" source="3jbmsUtakSOqrdovEyNH-5" target="3jbmsUtakSOqrdovEyNH-1" edge="1">
          <mxGeometry relative="1" as="geometry">
            <mxPoint x="560" y="180" as="sourcePoint" />
            <mxPoint x="720" y="180" as="targetPoint" />
          </mxGeometry>
        </mxCell>
        <mxCell id="3jbmsUtakSOqrdovEyNH-12" value="&lt;b&gt;&lt;u&gt;Azonosito&lt;/u&gt;&lt;/b&gt;" style="ellipse;whiteSpace=wrap;html=1;align=center;" parent="1" vertex="1">
          <mxGeometry x="10" y="80" width="100" height="40" as="geometry" />
        </mxCell>
        <mxCell id="3jbmsUtakSOqrdovEyNH-14" value="" style="endArrow=none;html=1;rounded=0;exitX=0;exitY=0;exitDx=0;exitDy=0;" parent="1" source="3jbmsUtakSOqrdovEyNH-1" target="3jbmsUtakSOqrdovEyNH-12" edge="1">
          <mxGeometry relative="1" as="geometry">
            <mxPoint x="190" y="230" as="sourcePoint" />
            <mxPoint x="720" y="180" as="targetPoint" />
          </mxGeometry>
        </mxCell>
        <mxCell id="3jbmsUtakSOqrdovEyNH-15" value="Szamla" style="shape=ext;margin=3;double=1;whiteSpace=wrap;html=1;align=center;" parent="1" vertex="1">
          <mxGeometry x="560" y="240" width="100" height="40" as="geometry" />
        </mxCell>
        <mxCell id="3jbmsUtakSOqrdovEyNH-16" value="" style="shape=link;html=1;rounded=0;entryX=1;entryY=0.5;entryDx=0;entryDy=0;" parent="1" target="3jbmsUtakSOqrdovEyNH-31" edge="1">
          <mxGeometry relative="1" as="geometry">
            <mxPoint x="590" y="360" as="sourcePoint" />
            <mxPoint x="460" y="200" as="targetPoint" />
          </mxGeometry>
        </mxCell>
        <mxCell id="3jbmsUtakSOqrdovEyNH-20" value="" style="endArrow=none;html=1;rounded=0;entryX=1;entryY=0.5;entryDx=0;entryDy=0;" parent="1" target="3jbmsUtakSOqrdovEyNH-2" edge="1">
          <mxGeometry relative="1" as="geometry">
            <mxPoint x="180" y="360" as="sourcePoint" />
            <mxPoint x="720" y="180" as="targetPoint" />
          </mxGeometry>
        </mxCell>
        <mxCell id="3jbmsUtakSOqrdovEyNH-21" value="" style="resizable=0;html=1;whiteSpace=wrap;align=right;verticalAlign=bottom;" parent="3jbmsUtakSOqrdovEyNH-20" connectable="0" vertex="1">
          <mxGeometry x="1" relative="1" as="geometry" />
        </mxCell>
        <mxCell id="3jbmsUtakSOqrdovEyNH-50" value="" style="resizable=0;html=1;whiteSpace=wrap;align=right;verticalAlign=bottom;" parent="3jbmsUtakSOqrdovEyNH-20" connectable="0" vertex="1">
          <mxGeometry x="1" relative="1" as="geometry">
            <mxPoint x="-289" y="440" as="offset" />
          </mxGeometry>
        </mxCell>
        <mxCell id="3jbmsUtakSOqrdovEyNH-24" value="&lt;div&gt;Szuletesi datum&lt;/div&gt;" style="ellipse;whiteSpace=wrap;html=1;align=center;" parent="1" vertex="1">
          <mxGeometry x="320" y="80" width="100" height="40" as="geometry" />
        </mxCell>
        <mxCell id="3jbmsUtakSOqrdovEyNH-29" value="" style="endArrow=none;html=1;rounded=0;exitX=0.5;exitY=1;exitDx=0;exitDy=0;entryX=1;entryY=0;entryDx=0;entryDy=0;" parent="1" source="3jbmsUtakSOqrdovEyNH-24" target="3jbmsUtakSOqrdovEyNH-1" edge="1">
          <mxGeometry relative="1" as="geometry">
            <mxPoint x="310" y="270" as="sourcePoint" />
            <mxPoint x="390" y="270" as="targetPoint" />
          </mxGeometry>
        </mxCell>
        <mxCell id="3jbmsUtakSOqrdovEyNH-30" value="" style="resizable=0;html=1;whiteSpace=wrap;align=right;verticalAlign=bottom;" parent="3jbmsUtakSOqrdovEyNH-29" connectable="0" vertex="1">
          <mxGeometry x="1" relative="1" as="geometry" />
        </mxCell>
        <mxCell id="3jbmsUtakSOqrdovEyNH-31" value="Van" style="rhombus;whiteSpace=wrap;html=1;" parent="1" vertex="1">
          <mxGeometry x="400" y="320" width="80" height="80" as="geometry" />
        </mxCell>
        <mxCell id="3jbmsUtakSOqrdovEyNH-32" value="" style="endArrow=none;html=1;rounded=0;entryX=0;entryY=0.5;entryDx=0;entryDy=0;" parent="1" target="3jbmsUtakSOqrdovEyNH-31" edge="1">
          <mxGeometry relative="1" as="geometry">
            <mxPoint x="300" y="360" as="sourcePoint" />
            <mxPoint x="390" y="210" as="targetPoint" />
          </mxGeometry>
        </mxCell>
        <mxCell id="3jbmsUtakSOqrdovEyNH-33" value="" style="resizable=0;html=1;whiteSpace=wrap;align=right;verticalAlign=bottom;" parent="3jbmsUtakSOqrdovEyNH-32" connectable="0" vertex="1">
          <mxGeometry x="1" relative="1" as="geometry" />
        </mxCell>
        <mxCell id="3jbmsUtakSOqrdovEyNH-38" value="&lt;b&gt;&lt;u&gt;Azonosito&lt;/u&gt;&lt;/b&gt;" style="ellipse;whiteSpace=wrap;html=1;align=center;" parent="1" vertex="1">
          <mxGeometry x="-440" y="80" width="100" height="40" as="geometry" />
        </mxCell>
        <mxCell id="3jbmsUtakSOqrdovEyNH-39" value="" style="endArrow=none;html=1;rounded=0;exitX=0;exitY=0;exitDx=0;exitDy=0;entryX=0.5;entryY=1;entryDx=0;entryDy=0;" parent="1" source="3jbmsUtakSOqrdovEyNH-68" target="3jbmsUtakSOqrdovEyNH-38" edge="1">
          <mxGeometry relative="1" as="geometry">
            <mxPoint x="-300.5" y="120" as="sourcePoint" />
            <mxPoint x="-140" y="130" as="targetPoint" />
          </mxGeometry>
        </mxCell>
        <mxCell id="3jbmsUtakSOqrdovEyNH-40" value="Kiallitva" style="ellipse;whiteSpace=wrap;html=1;align=center;" parent="1" vertex="1">
          <mxGeometry x="-330" y="80" width="100" height="40" as="geometry" />
        </mxCell>
        <mxCell id="3jbmsUtakSOqrdovEyNH-41" value="Lejarat" style="ellipse;whiteSpace=wrap;html=1;align=center;dashed=1;" parent="1" vertex="1">
          <mxGeometry x="-100" y="80" width="100" height="40" as="geometry" />
        </mxCell>
        <mxCell id="3jbmsUtakSOqrdovEyNH-44" value="" style="endArrow=none;html=1;rounded=0;exitX=0.25;exitY=0;exitDx=0;exitDy=0;entryX=0.5;entryY=1;entryDx=0;entryDy=0;" parent="1" source="3jbmsUtakSOqrdovEyNH-68" target="3jbmsUtakSOqrdovEyNH-40" edge="1">
          <mxGeometry relative="1" as="geometry">
            <mxPoint x="-300.5" y="160" as="sourcePoint" />
            <mxPoint x="-200" y="325" as="targetPoint" />
          </mxGeometry>
        </mxCell>
        <mxCell id="3jbmsUtakSOqrdovEyNH-45" value="" style="endArrow=none;html=1;rounded=0;exitX=1;exitY=0;exitDx=0;exitDy=0;entryX=0.5;entryY=1;entryDx=0;entryDy=0;" parent="1" source="3jbmsUtakSOqrdovEyNH-68" target="3jbmsUtakSOqrdovEyNH-41" edge="1">
          <mxGeometry relative="1" as="geometry">
            <mxPoint x="-240" y="160" as="sourcePoint" />
            <mxPoint x="-270" y="200" as="targetPoint" />
          </mxGeometry>
        </mxCell>
        <mxCell id="3jbmsUtakSOqrdovEyNH-46" value="TÃ­pus" style="ellipse;whiteSpace=wrap;html=1;align=center;" parent="1" vertex="1">
          <mxGeometry x="-220" y="80" width="100" height="40" as="geometry" />
        </mxCell>
        <mxCell id="3jbmsUtakSOqrdovEyNH-47" value="" style="endArrow=none;html=1;rounded=0;exitX=0.75;exitY=0;exitDx=0;exitDy=0;entryX=0.5;entryY=1;entryDx=0;entryDy=0;" parent="1" source="3jbmsUtakSOqrdovEyNH-68" target="3jbmsUtakSOqrdovEyNH-46" edge="1">
          <mxGeometry relative="1" as="geometry">
            <mxPoint x="-250.5" y="120" as="sourcePoint" />
            <mxPoint x="-170" y="110" as="targetPoint" />
          </mxGeometry>
        </mxCell>
        <mxCell id="3jbmsUtakSOqrdovEyNH-49" value="Van" style="rhombus;whiteSpace=wrap;html=1;" parent="1" vertex="1">
          <mxGeometry x="-480" y="440" width="80" height="80" as="geometry" />
        </mxCell>
        <mxCell id="3jbmsUtakSOqrdovEyNH-51" value="Elerhetosegek" style="shape=ext;margin=3;double=1;whiteSpace=wrap;html=1;align=center;" parent="1" vertex="1">
          <mxGeometry x="-700" y="240" width="100" height="40" as="geometry" />
        </mxCell>
        <mxCell id="3jbmsUtakSOqrdovEyNH-54" value="&lt;b&gt;&lt;u&gt;Azonosito&lt;/u&gt;&lt;/b&gt;" style="ellipse;whiteSpace=wrap;html=1;align=center;" parent="1" vertex="1">
          <mxGeometry x="-920" y="80" width="100" height="40" as="geometry" />
        </mxCell>
        <mxCell id="3jbmsUtakSOqrdovEyNH-55" value="" style="endArrow=none;html=1;rounded=0;exitX=0;exitY=0;exitDx=0;exitDy=0;entryX=0.5;entryY=1;entryDx=0;entryDy=0;" parent="1" source="3jbmsUtakSOqrdovEyNH-51" target="3jbmsUtakSOqrdovEyNH-54" edge="1">
          <mxGeometry relative="1" as="geometry">
            <mxPoint x="-354" y="125" as="sourcePoint" />
            <mxPoint x="-460" y="170" as="targetPoint" />
          </mxGeometry>
        </mxCell>
        <mxCell id="3jbmsUtakSOqrdovEyNH-56" value="Letrehozva" style="ellipse;whiteSpace=wrap;html=1;align=center;" parent="1" vertex="1">
          <mxGeometry x="-800" y="80" width="100" height="40" as="geometry" />
        </mxCell>
        <mxCell id="3jbmsUtakSOqrdovEyNH-57" value="Elerhetoseg" style="ellipse;whiteSpace=wrap;html=1;align=center;" parent="1" vertex="1">
          <mxGeometry x="-545.5" y="80" width="100" height="40" as="geometry" />
        </mxCell>
        <mxCell id="3jbmsUtakSOqrdovEyNH-58" value="" style="endArrow=none;html=1;rounded=0;exitX=0.25;exitY=0;exitDx=0;exitDy=0;entryX=0.5;entryY=1;entryDx=0;entryDy=0;" parent="1" source="3jbmsUtakSOqrdovEyNH-51" target="3jbmsUtakSOqrdovEyNH-56" edge="1">
          <mxGeometry relative="1" as="geometry">
            <mxPoint x="-414" y="320" as="sourcePoint" />
            <mxPoint x="-520" y="365" as="targetPoint" />
          </mxGeometry>
        </mxCell>
        <mxCell id="3jbmsUtakSOqrdovEyNH-59" value="" style="endArrow=none;html=1;rounded=0;exitX=1;exitY=0;exitDx=0;exitDy=0;entryX=0.5;entryY=1;entryDx=0;entryDy=0;" parent="1" target="3jbmsUtakSOqrdovEyNH-57" edge="1" source="3jbmsUtakSOqrdovEyNH-51">
          <mxGeometry relative="1" as="geometry">
            <mxPoint x="-560" y="200" as="sourcePoint" />
            <mxPoint x="-590" y="240" as="targetPoint" />
          </mxGeometry>
        </mxCell>
        <mxCell id="3jbmsUtakSOqrdovEyNH-60" value="TÃ­pus" style="ellipse;whiteSpace=wrap;html=1;align=center;" parent="1" vertex="1">
          <mxGeometry x="-670" y="80" width="100" height="40" as="geometry" />
        </mxCell>
        <mxCell id="3jbmsUtakSOqrdovEyNH-61" value="" style="endArrow=none;html=1;rounded=0;exitX=0.75;exitY=0;exitDx=0;exitDy=0;entryX=0.5;entryY=1;entryDx=0;entryDy=0;" parent="1" source="3jbmsUtakSOqrdovEyNH-51" target="3jbmsUtakSOqrdovEyNH-60" edge="1">
          <mxGeometry relative="1" as="geometry">
            <mxPoint x="-440" y="190" as="sourcePoint" />
            <mxPoint x="-490" y="150" as="targetPoint" />
          </mxGeometry>
        </mxCell>
        <mxCell id="3jbmsUtakSOqrdovEyNH-62" value="" style="shape=link;html=1;rounded=0;" parent="1" edge="1">
          <mxGeometry relative="1" as="geometry">
            <mxPoint x="-480" y="480" as="sourcePoint" />
            <mxPoint x="-650" y="480" as="targetPoint" />
          </mxGeometry>
        </mxCell>
        <mxCell id="3jbmsUtakSOqrdovEyNH-63" value="" style="endArrow=none;html=1;rounded=0;entryX=1;entryY=0.5;entryDx=0;entryDy=0;" parent="1" target="3jbmsUtakSOqrdovEyNH-49" edge="1">
          <mxGeometry relative="1" as="geometry">
            <mxPoint x="210" y="480" as="sourcePoint" />
            <mxPoint x="154" y="374" as="targetPoint" />
          </mxGeometry>
        </mxCell>
        <mxCell id="3jbmsUtakSOqrdovEyNH-66" value="" style="endArrow=none;html=1;rounded=0;entryX=0;entryY=0.5;entryDx=0;entryDy=0;" parent="1" target="3jbmsUtakSOqrdovEyNH-2" edge="1">
          <mxGeometry relative="1" as="geometry">
            <mxPoint x="-260" y="360" as="sourcePoint" />
            <mxPoint x="-420" y="200" as="targetPoint" />
          </mxGeometry>
        </mxCell>
        <mxCell id="3jbmsUtakSOqrdovEyNH-68" value="&lt;div&gt;Okirat&lt;/div&gt;&lt;div&gt;(igazolvany)&lt;br&gt;&lt;/div&gt;" style="rounded=0;whiteSpace=wrap;html=1;" parent="1" vertex="1">
          <mxGeometry x="-320" y="240" width="120" height="40" as="geometry" />
        </mxCell>
        <mxCell id="3jbmsUtakSOqrdovEyNH-69" value="&lt;div&gt;Tranzakcio&lt;/div&gt;&lt;div&gt;(Penzmozgatas)&lt;br&gt;&lt;/div&gt;" style="shape=ext;margin=3;double=1;whiteSpace=wrap;html=1;align=center;" parent="1" vertex="1">
          <mxGeometry x="880" y="240" width="200" height="40" as="geometry" />
        </mxCell>
        <mxCell id="3jbmsUtakSOqrdovEyNH-71" value="" style="shape=link;html=1;rounded=0;entryX=0;entryY=0.5;entryDx=0;entryDy=0;" parent="1" target="3jbmsUtakSOqrdovEyNH-95" edge="1">
          <mxGeometry relative="1" as="geometry">
            <mxPoint x="270" y="480" as="sourcePoint" />
            <mxPoint x="420" y="460" as="targetPoint" />
          </mxGeometry>
        </mxCell>
        <mxCell id="3jbmsUtakSOqrdovEyNH-76" value="" style="shape=link;html=1;rounded=0;exitX=1;exitY=0.5;exitDx=0;exitDy=0;" parent="1" source="3jbmsUtakSOqrdovEyNH-95" edge="1">
          <mxGeometry relative="1" as="geometry">
            <mxPoint x="400" y="560" as="sourcePoint" />
            <mxPoint x="1000" y="480" as="targetPoint" />
          </mxGeometry>
        </mxCell>
        <mxCell id="3jbmsUtakSOqrdovEyNH-77" value="" style="shape=link;html=1;rounded=0;entryX=0;entryY=0.5;entryDx=0;entryDy=0;" parent="1" target="3jbmsUtakSOqrdovEyNH-97" edge="1">
          <mxGeometry relative="1" as="geometry">
            <mxPoint x="630" y="360" as="sourcePoint" />
            <mxPoint x="594.5" y="460" as="targetPoint" />
          </mxGeometry>
        </mxCell>
        <mxCell id="3jbmsUtakSOqrdovEyNH-78" value="" style="shape=link;html=1;rounded=0;exitX=1;exitY=0.5;exitDx=0;exitDy=0;" parent="1" source="3jbmsUtakSOqrdovEyNH-97" edge="1">
          <mxGeometry relative="1" as="geometry">
            <mxPoint x="594.5" y="540" as="sourcePoint" />
            <mxPoint x="930" y="360" as="targetPoint" />
          </mxGeometry>
        </mxCell>
        <mxCell id="3jbmsUtakSOqrdovEyNH-83" value="&lt;b&gt;&lt;u&gt;Azonosito&lt;/u&gt;&lt;/b&gt;" style="ellipse;whiteSpace=wrap;html=1;align=center;" parent="1" vertex="1">
          <mxGeometry x="800" y="80" width="100" height="40" as="geometry" />
        </mxCell>
        <mxCell id="3jbmsUtakSOqrdovEyNH-84" value="" style="endArrow=none;html=1;rounded=0;exitX=0.5;exitY=1;exitDx=0;exitDy=0;entryX=0;entryY=0;entryDx=0;entryDy=0;" parent="1" source="3jbmsUtakSOqrdovEyNH-83" target="3jbmsUtakSOqrdovEyNH-69" edge="1">
          <mxGeometry relative="1" as="geometry">
            <mxPoint x="370" y="710" as="sourcePoint" />
            <mxPoint x="440" y="670" as="targetPoint" />
          </mxGeometry>
        </mxCell>
        <mxCell id="3jbmsUtakSOqrdovEyNH-87" value="Datum" style="ellipse;whiteSpace=wrap;html=1;align=center;" parent="1" vertex="1">
          <mxGeometry x="920" y="80" width="100" height="40" as="geometry" />
        </mxCell>
        <mxCell id="3jbmsUtakSOqrdovEyNH-91" value="" style="endArrow=none;html=1;rounded=0;exitX=0.5;exitY=1;exitDx=0;exitDy=0;entryX=0.445;entryY=0;entryDx=0;entryDy=0;entryPerimeter=0;" parent="1" source="3jbmsUtakSOqrdovEyNH-87" target="3jbmsUtakSOqrdovEyNH-69" edge="1">
          <mxGeometry relative="1" as="geometry">
            <mxPoint x="580" y="730" as="sourcePoint" />
            <mxPoint x="550" y="650" as="targetPoint" />
          </mxGeometry>
        </mxCell>
        <mxCell id="3jbmsUtakSOqrdovEyNH-95" value="Kitol - Kihez" style="shape=rhombus;double=1;perimeter=rhombusPerimeter;whiteSpace=wrap;html=1;align=center;" parent="1" vertex="1">
          <mxGeometry x="730" y="450" width="120" height="60" as="geometry" />
        </mxCell>
        <mxCell id="3jbmsUtakSOqrdovEyNH-97" value="Honnan - Hova" style="shape=rhombus;double=1;perimeter=rhombusPerimeter;whiteSpace=wrap;html=1;align=center;" parent="1" vertex="1">
          <mxGeometry x="730" y="330" width="120" height="60" as="geometry" />
        </mxCell>
        <mxCell id="nA2mqKcWVyRxWZkpUI0n-1" value="&lt;b&gt;&lt;u&gt;Azonosito&lt;/u&gt;&lt;/b&gt;" style="ellipse;whiteSpace=wrap;html=1;align=center;" parent="1" vertex="1">
          <mxGeometry x="440" y="80" width="100" height="40" as="geometry" />
        </mxCell>
        <mxCell id="nA2mqKcWVyRxWZkpUI0n-2" value="Letrehozva" style="ellipse;whiteSpace=wrap;html=1;align=center;" parent="1" vertex="1">
          <mxGeometry x="560" y="80" width="100" height="40" as="geometry" />
        </mxCell>
        <mxCell id="nA2mqKcWVyRxWZkpUI0n-4" value="Egyenleg" style="ellipse;whiteSpace=wrap;html=1;align=center;" parent="1" vertex="1">
          <mxGeometry x="680" y="80" width="100" height="40" as="geometry" />
        </mxCell>
        <mxCell id="nA2mqKcWVyRxWZkpUI0n-5" value="" style="endArrow=none;html=1;rounded=0;exitX=0.5;exitY=1;exitDx=0;exitDy=0;entryX=0;entryY=0;entryDx=0;entryDy=0;" parent="1" source="nA2mqKcWVyRxWZkpUI0n-1" target="3jbmsUtakSOqrdovEyNH-15" edge="1">
          <mxGeometry relative="1" as="geometry">
            <mxPoint x="700" y="340" as="sourcePoint" />
            <mxPoint x="630" y="434" as="targetPoint" />
          </mxGeometry>
        </mxCell>
        <mxCell id="nA2mqKcWVyRxWZkpUI0n-6" value="" style="endArrow=none;html=1;rounded=0;exitX=0.5;exitY=1;exitDx=0;exitDy=0;entryX=0.5;entryY=0;entryDx=0;entryDy=0;" parent="1" source="nA2mqKcWVyRxWZkpUI0n-2" target="3jbmsUtakSOqrdovEyNH-15" edge="1">
          <mxGeometry relative="1" as="geometry">
            <mxPoint x="730" y="310" as="sourcePoint" />
            <mxPoint x="655" y="320" as="targetPoint" />
          </mxGeometry>
        </mxCell>
        <mxCell id="nA2mqKcWVyRxWZkpUI0n-8" value="" style="endArrow=none;html=1;rounded=0;exitX=0.5;exitY=1;exitDx=0;exitDy=0;entryX=1;entryY=0;entryDx=0;entryDy=0;" parent="1" source="nA2mqKcWVyRxWZkpUI0n-4" target="3jbmsUtakSOqrdovEyNH-15" edge="1">
          <mxGeometry relative="1" as="geometry">
            <mxPoint x="705" y="460" as="sourcePoint" />
            <mxPoint x="630" y="430" as="targetPoint" />
          </mxGeometry>
        </mxCell>
        <mxCell id="swxgn1POPDVMR8X_cBkS-1" value="Osszeg" style="ellipse;whiteSpace=wrap;html=1;align=center;" parent="1" vertex="1">
          <mxGeometry x="1040" y="80" width="100" height="40" as="geometry" />
        </mxCell>
        <mxCell id="swxgn1POPDVMR8X_cBkS-2" value="" style="endArrow=none;html=1;rounded=0;entryX=1;entryY=0;entryDx=0;entryDy=0;" parent="1" target="3jbmsUtakSOqrdovEyNH-69" edge="1">
          <mxGeometry relative="1" as="geometry">
            <mxPoint x="1090" y="120" as="sourcePoint" />
            <mxPoint x="570" y="650" as="targetPoint" />
          </mxGeometry>
        </mxCell>
        <mxCell id="MYTNPTFV9egZMzs-0tR_-5" value="" style="shape=link;html=1;rounded=0;entryX=0.5;entryY=1;entryDx=0;entryDy=0;" edge="1" parent="1" target="3jbmsUtakSOqrdovEyNH-51">
          <mxGeometry relative="1" as="geometry">
            <mxPoint x="-650" y="480" as="sourcePoint" />
            <mxPoint x="-810" y="530" as="targetPoint" />
          </mxGeometry>
        </mxCell>
        <mxCell id="MYTNPTFV9egZMzs-0tR_-6" value="" style="endArrow=none;html=1;rounded=0;entryX=0.5;entryY=1;entryDx=0;entryDy=0;" edge="1" parent="1" target="3jbmsUtakSOqrdovEyNH-68">
          <mxGeometry relative="1" as="geometry">
            <mxPoint x="-260" y="360" as="sourcePoint" />
            <mxPoint x="-30" y="370" as="targetPoint" />
          </mxGeometry>
        </mxCell>
        <mxCell id="MYTNPTFV9egZMzs-0tR_-7" value="" style="endArrow=none;html=1;rounded=0;entryX=0;entryY=1;entryDx=0;entryDy=0;" edge="1" parent="1" target="3jbmsUtakSOqrdovEyNH-1">
          <mxGeometry relative="1" as="geometry">
            <mxPoint x="180" y="360" as="sourcePoint" />
            <mxPoint x="50" y="370" as="targetPoint" />
          </mxGeometry>
        </mxCell>
        <mxCell id="MYTNPTFV9egZMzs-0tR_-8" value="" style="resizable=0;html=1;whiteSpace=wrap;align=right;verticalAlign=bottom;" connectable="0" vertex="1" parent="MYTNPTFV9egZMzs-0tR_-7">
          <mxGeometry x="1" relative="1" as="geometry" />
        </mxCell>
        <mxCell id="MYTNPTFV9egZMzs-0tR_-9" value="" style="resizable=0;html=1;whiteSpace=wrap;align=right;verticalAlign=bottom;" connectable="0" vertex="1" parent="MYTNPTFV9egZMzs-0tR_-7">
          <mxGeometry x="1" relative="1" as="geometry">
            <mxPoint x="-289" y="440" as="offset" />
          </mxGeometry>
        </mxCell>
        <mxCell id="MYTNPTFV9egZMzs-0tR_-10" value="" style="endArrow=none;html=1;rounded=0;entryX=1;entryY=1;entryDx=0;entryDy=0;" edge="1" parent="1" target="3jbmsUtakSOqrdovEyNH-1">
          <mxGeometry relative="1" as="geometry">
            <mxPoint x="300" y="360" as="sourcePoint" />
            <mxPoint x="213" y="291" as="targetPoint" />
          </mxGeometry>
        </mxCell>
        <mxCell id="MYTNPTFV9egZMzs-0tR_-11" value="" style="resizable=0;html=1;whiteSpace=wrap;align=right;verticalAlign=bottom;" connectable="0" vertex="1" parent="MYTNPTFV9egZMzs-0tR_-10">
          <mxGeometry x="1" relative="1" as="geometry" />
        </mxCell>
        <mxCell id="MYTNPTFV9egZMzs-0tR_-12" value="" style="resizable=0;html=1;whiteSpace=wrap;align=right;verticalAlign=bottom;" connectable="0" vertex="1" parent="MYTNPTFV9egZMzs-0tR_-10">
          <mxGeometry x="1" relative="1" as="geometry">
            <mxPoint x="-289" y="440" as="offset" />
          </mxGeometry>
        </mxCell>
        <mxCell id="MYTNPTFV9egZMzs-0tR_-13" value="" style="shape=link;html=1;rounded=0;entryX=0.75;entryY=1;entryDx=0;entryDy=0;" edge="1" parent="1" target="3jbmsUtakSOqrdovEyNH-1">
          <mxGeometry relative="1" as="geometry">
            <mxPoint x="270" y="480" as="sourcePoint" />
            <mxPoint x="740" y="490" as="targetPoint" />
          </mxGeometry>
        </mxCell>
        <mxCell id="MYTNPTFV9egZMzs-0tR_-14" value="" style="endArrow=none;html=1;rounded=0;entryX=0.25;entryY=1;entryDx=0;entryDy=0;" edge="1" parent="1" target="3jbmsUtakSOqrdovEyNH-1">
          <mxGeometry relative="1" as="geometry">
            <mxPoint x="210" y="480" as="sourcePoint" />
            <mxPoint x="50" y="490" as="targetPoint" />
          </mxGeometry>
        </mxCell>
        <mxCell id="MYTNPTFV9egZMzs-0tR_-15" value="" style="shape=link;html=1;rounded=0;entryX=0.75;entryY=1;entryDx=0;entryDy=0;" edge="1" parent="1" target="3jbmsUtakSOqrdovEyNH-15">
          <mxGeometry relative="1" as="geometry">
            <mxPoint x="635" y="360" as="sourcePoint" />
            <mxPoint x="700" y="320" as="targetPoint" />
          </mxGeometry>
        </mxCell>
        <mxCell id="MYTNPTFV9egZMzs-0tR_-16" value="" style="shape=link;html=1;rounded=0;exitX=0.25;exitY=1;exitDx=0;exitDy=0;" edge="1" parent="1" source="3jbmsUtakSOqrdovEyNH-15">
          <mxGeometry relative="1" as="geometry">
            <mxPoint x="660" y="400" as="sourcePoint" />
            <mxPoint x="585" y="360" as="targetPoint" />
          </mxGeometry>
        </mxCell>
        <mxCell id="MYTNPTFV9egZMzs-0tR_-17" value="" style="shape=link;html=1;rounded=0;exitX=0.25;exitY=1;exitDx=0;exitDy=0;" edge="1" parent="1" source="3jbmsUtakSOqrdovEyNH-69">
          <mxGeometry relative="1" as="geometry">
            <mxPoint x="860" y="370" as="sourcePoint" />
            <mxPoint x="930" y="360" as="targetPoint" />
          </mxGeometry>
        </mxCell>
        <mxCell id="MYTNPTFV9egZMzs-0tR_-18" value="" style="shape=link;html=1;rounded=0;exitX=0.59;exitY=1.025;exitDx=0;exitDy=0;exitPerimeter=0;" edge="1" parent="1" source="3jbmsUtakSOqrdovEyNH-69">
          <mxGeometry relative="1" as="geometry">
            <mxPoint x="1020" y="420" as="sourcePoint" />
            <mxPoint x="1000" y="480" as="targetPoint" />
          </mxGeometry>
        </mxCell>
        <mxCell id="MYTNPTFV9egZMzs-0tR_-19" value="N" style="text;html=1;strokeColor=none;fillColor=none;align=center;verticalAlign=middle;whiteSpace=wrap;rounded=0;" vertex="1" parent="1">
          <mxGeometry x="-530" y="450" width="60" height="30" as="geometry" />
        </mxCell>
        <mxCell id="MYTNPTFV9egZMzs-0tR_-20" value="1" style="text;html=1;strokeColor=none;fillColor=none;align=center;verticalAlign=middle;whiteSpace=wrap;rounded=0;" vertex="1" parent="1">
          <mxGeometry x="-410" y="450" width="60" height="30" as="geometry" />
        </mxCell>
        <mxCell id="MYTNPTFV9egZMzs-0tR_-21" value="1" style="text;html=1;strokeColor=none;fillColor=none;align=center;verticalAlign=middle;whiteSpace=wrap;rounded=0;" vertex="1" parent="1">
          <mxGeometry x="-90" y="330" width="60" height="30" as="geometry" />
        </mxCell>
        <mxCell id="MYTNPTFV9egZMzs-0tR_-22" value="1" style="text;html=1;strokeColor=none;fillColor=none;align=center;verticalAlign=middle;whiteSpace=wrap;rounded=0;" vertex="1" parent="1">
          <mxGeometry x="30" y="330" width="60" height="30" as="geometry" />
        </mxCell>
        <mxCell id="MYTNPTFV9egZMzs-0tR_-23" value="1" style="text;html=1;strokeColor=none;fillColor=none;align=center;verticalAlign=middle;whiteSpace=wrap;rounded=0;" vertex="1" parent="1">
          <mxGeometry x="360" y="330" width="60" height="30" as="geometry" />
        </mxCell>
        <mxCell id="MYTNPTFV9egZMzs-0tR_-24" value="N" style="text;html=1;strokeColor=none;fillColor=none;align=center;verticalAlign=middle;whiteSpace=wrap;rounded=0;" vertex="1" parent="1">
          <mxGeometry x="460" y="330" width="60" height="30" as="geometry" />
        </mxCell>
        <mxCell id="MYTNPTFV9egZMzs-0tR_-25" value="M" style="text;html=1;strokeColor=none;fillColor=none;align=center;verticalAlign=middle;whiteSpace=wrap;rounded=0;" vertex="1" parent="1">
          <mxGeometry x="690" y="450" width="60" height="30" as="geometry" />
        </mxCell>
        <mxCell id="MYTNPTFV9egZMzs-0tR_-26" value="N" style="text;html=1;strokeColor=none;fillColor=none;align=center;verticalAlign=middle;whiteSpace=wrap;rounded=0;" vertex="1" parent="1">
          <mxGeometry x="830" y="450" width="60" height="30" as="geometry" />
        </mxCell>
        <mxCell id="MYTNPTFV9egZMzs-0tR_-27" value="N" style="text;html=1;strokeColor=none;fillColor=none;align=center;verticalAlign=middle;whiteSpace=wrap;rounded=0;" vertex="1" parent="1">
          <mxGeometry x="830" y="330" width="60" height="30" as="geometry" />
        </mxCell>
        <mxCell id="MYTNPTFV9egZMzs-0tR_-28" value="M" style="text;html=1;strokeColor=none;fillColor=none;align=center;verticalAlign=middle;whiteSpace=wrap;rounded=0;" vertex="1" parent="1">
          <mxGeometry x="690" y="330" width="60" height="30" as="geometry" />
        </mxCell>
      </root>
    </mxGraphModel>
  </diagram>
</mxfile>
